PathFileType	4	(x/y/z)	S09_P20_T28
DataRate	CameraRate	NumFrames	NumMarkers	Units	OrigDataRate	OrigDataStartFrame	OrigNumFrames
240	240	9	51	mm	240	52	414
Frame#	Time	Sternum			R.Acromium			L.Acromium			Top.Head			R.ASIS			L.ASIS			R.PSIS			L.PSIS			R.Great.Tro			L.Great.Tro			R.Iliac.Crest			L.Iliac.Crest			V.Sacral			R.Thigh.Upper.Post			R.Thigh.Lower.Ant			R.Thigh.Lower.Post			R.Thigh.Upper.Ant			R.Knee.Lat			R.Knee.Med			R.Shank.Upper.Post			R.Shank.Lower.Ant			R.Shank.Lower.Post			R.Shank.Upper.Ant			R.Ankle.Lat			R.Ankle.Med			R.Heel.Upper			R.Heel.Med			R.Heel.Lat			R.Toe.Lat			R.Toe.Med			R.Toe.Tip			L.Thigh.Upper.Post			L.Thigh.Lower.Ant			L.Thigh.Lower.Post			L.Thigh.Upper.Ant			L.Knee.Lat			L.Knee.Med			L.Shank.Upper.Post			L.Shank.Lower.Ant			L.Shank.Lower.Post			L.Shank.Upper.Ant			L.Ankle.Lat			L.Ankle.Med			L.Heel.Upper			L.Heel.Med			L.Heel.Lat			L.Toe.Lat			L.Toe.Med			L.Toe.Tip			Cervical.Spine			Back			
		X1	Y1	Z1	X2	Y2	Z2	X3	Y3	Z3	X4	Y4	Z4	X5	Y5	Z5	X6	Y6	Z6	X7	Y7	Z7	X8	Y8	Z8	X9	Y9	Z9	X10	Y10	Z10	X11	Y11	Z11	X12	Y12	Z12	X13	Y13	Z13	X14	Y14	Z14	X15	Y15	Z15	X16	Y16	Z16	X17	Y17	Z17	X18	Y18	Z18	X19	Y19	Z19	X20	Y20	Z20	X21	Y21	Z21	X22	Y22	Z22	X23	Y23	Z23	X24	Y24	Z24	X25	Y25	Z25	X26	Y26	Z26	X27	Y27	Z27	X28	Y28	Z28	X29	Y29	Z29	X30	Y30	Z30	X31	Y31	Z31	X32	Y32	Z32	X33	Y33	Z33	X34	Y34	Z34	X35	Y35	Z35	X36	Y36	Z36	X37	Y37	Z37	X38	Y38	Z38	X39	Y39	Z39	X40	Y40	Z40	X41	Y41	Z41	X42	Y42	Z42	X43	Y43	Z43	X44	Y44	Z44	X45	Y45	Z45	X46	Y46	Z46	X47	Y47	Z47	X48	Y48	Z48	X49	Y49	Z49	X50	Y50	Z50	X51	Y51	Z51	

52	0.2125	NaN	NaN	NaN	-1241	1435.9	487.53	-1252.7	1440.2	186.86	-1235.6	1745.3	344.63	-1178.8	1013.6	454.42	-1174.4	1026.7	208.72	NaN	NaN	NaN	NaN	NaN	NaN	-1259.2	927.88	528.04	-1249.4	938.74	141.81	-1263.3	1093.6	498.98	-1282	1124.3	179.12	-1415.1	1011.5	331.09	NaN	NaN	NaN	-1156.8	583.83	502.86	-1238.5	589.07	500.98	-1168.2	672.67	518.37	-1185.5	501.47	494	NaN	NaN	NaN	NaN	NaN	NaN	-1358.3	341.37	486.96	-1412.2	385.78	479.9	-1299.7	388.15	499.59	-1552.9	252.99	459.73	-1507.2	227.38	378.98	-1578.9	295.82	403.17	-1595.4	273.44	370.09	-1604.1	274.2	432.6	-1560.2	125.09	485.94	-1517.4	91.321	388.43	-1484.8	60.302	432.64	-1276.1	672.52	195.56	-1180.8	588.47	201.78	-1246.4	587.87	220.01	-1205.6	670.59	172.98	-1183.3	509.3	218.38	-1163.5	530.98	346.67	-1219.3	372.12	212.55	-1150.4	287.98	231.95	-1214.9	294.89	224.2	-1156.4	365.13	221.32	-1181.9	100.25	259.72	-1164.8	103.48	353.32	-1248	68.558	318.08	-1235.5	47.424	351.22	-1247.5	38.943	291.02	-1073.3	40.754	236.7	-1037.8	51.371	344.33	-986.45	65.592	284.73	-1338.8	1490.6	353.68	-1385.6	1224.7	338.48
53	0.21667	NaN	NaN	NaN	-1235.8	1436.5	487.16	-1247	1440.8	186.39	-1230	1745.9	344.24	-1173.3	1014.2	453.72	-1169.4	1027.3	208	NaN	NaN	NaN	NaN	NaN	NaN	-1253.8	928.56	527.48	-1244.4	939.33	141.16	-1257.9	1094.1	498.51	-1277.1	1125.1	178.64	-1410	1012.2	330.71	NaN	NaN	NaN	-1147	585.9	502.84	-1228.4	590.18	500.94	-1159.5	674.66	518.37	-1174.6	503.21	494.13	NaN	NaN	NaN	NaN	NaN	NaN	-1346.6	342.5	486.99	-1400.8	387.06	480.59	-1288.3	389.37	499.64	-1542.5	254.84	460.18	-1496.3	229.19	379.18	-1568	296.9	403.82	-1584.5	274.35	370.85	-1591.8	274.5	433.33	-1547.6	126.67	486.73	-1505	93.087	388.88	-1472.2	61.664	433.23	-1272.7	673.3	195.25	-1178.1	588.62	201.56	-1243.5	588.44	219.74	-1202.3	670.9	172.72	-1181.2	509.38	218.25	-1161.5	530.92	346.59	-1217.8	372.35	212.38	-1149.2	287.89	231.88	-1213.7	295.09	224.12	-1155	365.06	221.2	-1181.7	100.35	259.81	-1164.6	103.52	353.4	-1247.9	68.7	318.13	-1235.5	47.504	351.24	-1247.4	39.136	291.03	-1073.3	40.711	236.71	-1037.7	51.085	344.4	-986.33	65.185	284.79	-1333.4	1491.3	353.11	-1380.3	1225.5	337.89
54	0.22083	NaN	NaN	NaN	-1230.5	1437.2	486.8	-1241.3	1441.5	185.94	-1224.3	1746.6	343.85	-1167.8	1014.9	453.07	-1164.4	1027.9	207.31	NaN	NaN	NaN	NaN	NaN	NaN	-1248.6	929.28	526.92	-1239.3	939.91	140.52	-1252.6	1094.7	498.04	-1272.2	1125.8	178.14	-1404.8	1012.8	330.31	-1224.9	684.33	520.21	-1137.3	588.07	502.71	-1218.5	591.38	500.87	-1150.9	676.72	518.26	-1163.7	505.04	494.19	NaN	NaN	NaN	NaN	NaN	NaN	-1334.7	343.53	486.94	-1389.3	388.17	481.25	-1276.9	390.6	499.61	-1531.8	256.36	460.59	-1485.2	230.77	379.35	-1557.1	297.61	404.38	-1573.6	274.82	371.51	-1579.6	274.42	433.96	-1534.6	128.02	487.55	-1492.1	94.659	389.43	-1459	62.988	433.96	-1269.4	674.1	194.99	-1175.4	588.78	201.35	-1240.8	589.03	219.51	-1199	671.22	172.5	-1179.1	509.47	218.12	-1159.6	530.86	346.53	-1216.3	372.58	212.21	-1148.2	287.82	231.82	-1212.5	295.31	224.06	-1153.6	365.01	221.09	-1181.5	100.45	259.9	-1164.3	103.58	353.48	-1247.8	68.852	318.18	-1235.4	47.589	351.27	-1247.3	39.337	291.04	-1073.2	40.671	236.72	-1037.6	50.813	344.47	-986.2	64.799	284.86	-1327.9	1492	352.55	-1375	1226.2	337.29
55	0.225	NaN	NaN	NaN	-1225.3	1437.9	486.45	-1235.6	1442.1	185.53	-1218.7	1747.2	343.46	-1162.3	1015.6	452.45	-1159.4	1028.5	206.67	NaN	NaN	NaN	NaN	NaN	NaN	-1243.4	930.04	526.37	-1234.3	940.48	139.91	-1247.3	1095.3	497.56	-1267.3	1126.5	177.63	-1399.7	1013.5	329.87	-1217.3	685.49	519.84	-1127.6	590.31	502.49	-1208.5	592.66	500.76	-1142.3	678.84	518.06	-1152.9	506.95	494.16	NaN	NaN	NaN	NaN	NaN	NaN	-1322.8	344.48	486.83	-1377.9	389.11	481.88	-1265.5	391.84	499.53	-1520.8	257.53	460.96	-1473.9	232.12	379.5	-1546.2	297.95	404.86	-1562.5	274.86	372.06	-1567.4	274.03	434.51	-1521.3	129.12	488.39	-1478.8	96.024	390.06	-1445.4	64.254	434.84	-1266.2	674.91	194.78	-1172.7	588.95	201.15	-1238.1	589.63	219.3	-1195.8	671.55	172.31	-1177.1	509.57	217.99	-1157.7	530.81	346.48	-1214.9	372.83	212.06	-1147.1	287.76	231.77	-1211.4	295.56	224	-1152.3	364.98	220.98	-1181.3	100.56	259.98	-1164.1	103.66	353.56	-1247.7	69.015	318.23	-1235.3	47.681	351.29	-1247.2	39.545	291.05	-1073.2	40.632	236.73	-1037.5	50.555	344.53	-986.08	64.433	284.91	-1322.5	1492.7	352	-1369.8	1227	336.69
56	0.22917	NaN	NaN	NaN	-1220.1	1438.6	486.11	-1229.9	1442.8	185.14	-1213.1	1747.9	343.07	-1156.9	1016.4	451.86	-1154.4	1029	206.08	NaN	NaN	NaN	NaN	NaN	NaN	-1238.3	930.85	525.82	-1229.4	941.04	139.31	-1242	1096	497.08	-1262.3	1127.1	177.11	-1394.6	1014.3	329.4	-1209.3	686.72	519.46	-1118	592.62	502.17	-1198.6	594.02	500.64	-1133.7	681.02	517.76	-1142.2	508.93	494.05	NaN	NaN	NaN	NaN	NaN	NaN	-1310.8	345.34	486.66	-1366.4	389.88	482.46	-1254.2	393.06	499.4	-1509.4	258.34	461.29	-1462.4	233.21	379.63	-1535.3	297.94	405.24	-1551.3	274.48	372.52	-1555.3	273.34	434.97	-1507.7	129.98	489.26	-1465.1	97.175	390.78	-1431.4	65.447	435.87	-1263.1	675.75	194.62	-1170.2	589.13	200.96	-1235.5	590.25	219.11	-1192.7	671.9	172.14	-1175.1	509.68	217.86	-1155.8	530.77	346.43	-1213.5	373.08	211.9	-1146.1	287.73	231.71	-1210.3	295.83	223.94	-1151	364.96	220.88	-1181	100.67	260.07	-1163.8	103.75	353.63	-1247.7	69.189	318.28	-1235.3	47.78	351.31	-1247.1	39.761	291.07	-1073.1	40.594	236.75	-1037.3	50.31	344.59	-985.96	64.083	284.96	-1317	1493.5	351.46	-1364.5	1227.8	336.08
57	0.23333	NaN	NaN	NaN	-1214.9	1439.3	485.78	-1224.2	1443.4	184.79	-1207.5	1748.6	342.69	-1151.6	1017.2	451.31	-1149.5	1029.5	205.52	NaN	NaN	NaN	NaN	NaN	NaN	-1233.2	931.68	525.28	-1224.4	941.59	138.74	-1236.8	1096.8	496.58	-1257.3	1127.8	176.58	-1389.5	1015	328.91	-1201.1	688.02	519.07	-1108.5	594.99	501.76	-1188.8	595.44	500.49	-1125.1	683.25	517.38	-1131.5	510.98	493.86	NaN	NaN	NaN	NaN	NaN	NaN	-1298.9	346.12	486.45	-1354.9	390.47	482.98	-1242.9	394.27	499.23	-1497.8	258.78	461.59	-1450.6	234.02	379.75	-1524.3	297.56	405.55	-1539.9	273.71	372.87	-1543.4	272.4	435.34	-1493.8	130.6	490.15	-1451	98.106	391.59	-1417	66.551	437.02	-1260	676.6	194.49	-1167.6	589.33	200.77	-1232.9	590.89	218.95	-1189.6	672.25	172	-1173.2	509.81	217.73	-1154	530.75	346.37	-1212.2	373.35	211.75	-1145.1	287.73	231.65	-1209.2	296.13	223.88	-1149.7	364.96	220.77	-1180.8	100.79	260.14	-1163.6	103.86	353.69	-1247.6	69.375	318.33	-1235.2	47.889	351.32	-1247	39.984	291.08	-1073	40.555	236.76	-1037.2	50.079	344.64	-985.84	63.747	285	-1311.6	1494.3	350.92	-1359.3	1228.6	335.47
58	0.2375	NaN	NaN	NaN	-1209.7	1439.9	485.45	-1218.6	1444.1	184.46	-1202	1749.3	342.3	-1146.3	1018.1	450.8	-1144.6	1030	205.01	NaN	NaN	NaN	NaN	NaN	NaN	-1228.2	932.55	524.73	-1219.6	942.13	138.2	-1231.6	1097.6	496.08	-1252.2	1128.4	176.04	-1384.3	1015.8	328.38	-1192.8	689.38	518.68	-1099	597.41	501.27	-1179.1	596.93	500.32	-1116.6	685.52	516.91	-1120.9	513.08	493.6	NaN	NaN	NaN	NaN	NaN	NaN	-1286.9	346.83	486.2	-1343.4	390.89	483.46	-1231.6	395.46	499.01	-1485.9	258.86	461.86	-1438.5	234.56	379.86	-1513.3	296.84	405.77	-1528.4	272.54	373.14	-1531.5	271.22	435.64	-1479.6	130.99	491.05	-1436.6	98.813	392.48	-1402.3	67.557	438.29	-1257	677.46	194.4	-1165.2	589.53	200.58	-1230.4	591.55	218.81	-1186.6	672.62	171.87	-1171.3	509.95	217.58	-1152.1	530.73	346.31	-1210.9	373.62	211.61	-1144.2	287.75	231.59	-1208.1	296.45	223.81	-1148.5	364.99	220.67	-1180.6	100.91	260.22	-1163.3	103.99	353.75	-1247.5	69.573	318.37	-1235.2	48.007	351.33	-1246.9	40.214	291.09	-1073	40.517	236.77	-1037.1	49.86	344.68	-985.72	63.422	285.04	-1306.1	1495	350.4	-1354	1229.4	334.85
59	0.24167	NaN	NaN	NaN	-1204.5	1440.6	485.14	-1212.9	1444.8	184.16	-1196.5	1749.9	341.92	-1141	1019	450.31	-1139.7	1030.5	204.54	NaN	NaN	NaN	NaN	NaN	NaN	-1223.2	933.44	524.19	-1214.8	942.66	137.7	-1226.5	1098.4	495.57	-1247.1	1129.1	175.49	-1379.2	1016.6	327.83	-1184.3	690.79	518.28	-1089.5	599.88	500.7	-1169.5	598.48	500.14	-1108	687.83	516.36	-1110.5	515.24	493.26	NaN	NaN	NaN	NaN	NaN	NaN	-1274.9	347.47	485.92	-1331.9	391.15	483.87	-1220.3	396.63	498.76	-1473.6	258.59	462.1	-1426.3	234.81	379.98	-1502.1	295.78	405.93	-1516.8	271.01	373.33	-1519.7	269.84	435.88	-1465.3	131.14	491.97	-1421.8	99.295	393.44	-1387.3	68.452	439.65	-1254	678.35	194.34	-1162.8	589.75	200.39	-1228	592.22	218.68	-1183.7	673	171.75	-1169.5	510.11	217.43	-1150.2	530.73	346.24	-1209.7	373.91	211.47	-1143.2	287.79	231.52	-1207	296.79	223.73	-1147.3	365.03	220.55	-1180.4	101.04	260.28	-1163.1	104.14	353.8	-1247.4	69.783	318.41	-1235.1	48.135	351.33	-1246.8	40.452	291.1	-1072.9	40.477	236.78	-1037	49.653	344.72	-985.59	63.107	285.07	-1300.7	1495.8	349.89	-1348.8	1230.3	334.23
60	0.24583	NaN	NaN	NaN	-1199.3	1441.3	484.82	-1207.2	1445.5	183.89	-1190.9	1750.6	341.54	-1135.7	1019.9	449.86	-1134.8	1031	204.1	NaN	NaN	NaN	NaN	NaN	NaN	-1218.2	934.36	523.64	-1210	943.17	137.23	-1221.4	1099.3	495.05	-1241.9	1129.7	174.93	-1374.1	1017.4	327.26	-1175.8	692.25	517.89	-1080.2	602.39	500.05	-1160	600.07	499.95	-1099.6	690.16	515.74	-1100.1	517.43	492.85	NaN	NaN	NaN	NaN	NaN	NaN	-1262.9	348.04	485.61	-1320.4	391.24	484.23	-1209.1	397.76	498.49	-1461.1	257.96	462.32	-1413.8	234.79	380.1	-1490.9	294.4	406.03	-1505	269.12	373.45	-1508.1	268.25	436.07	-1450.7	131.06	492.91	-1406.9	99.554	394.46	-1372	69.231	441.07	-1251.1	679.26	194.31	-1160.4	589.98	200.19	-1225.6	592.91	218.56	-1180.8	673.38	171.64	-1167.6	510.29	217.27	-1148.4	530.75	346.15	-1208.5	374.21	211.34	-1142.3	287.85	231.45	-1206	297.16	223.64	-1146.1	365.09	220.43	-1180.1	101.18	260.34	-1162.8	104.3	353.85	-1247.4	70.006	318.45	-1235	48.275	351.33	-1246.7	40.696	291.1	-1072.9	40.436	236.79	-1036.9	49.456	344.74	-985.47	62.798	285.09	-1295.3	1496.6	349.38	-1343.6	1231.1	333.59
